<?xml version="1.0" encoding="utf-8"?>
<!-- Generator: Adobe Illustrator 27.2.0, SVG Export Plug-In . SVG Version: 6.00 Build 0)  -->
<svg version="1.1" id="Layer_1" xmlns="http://www.w3.org/2000/svg" xmlns:xlink="http://www.w3.org/1999/xlink" x="0px" y="0px"
	 viewBox="0 0 600 600" style="enable-background:new 0 0 600 600;" xml:space="preserve">
<style type="text/css">
	.st0{fill:#222222;}
</style>
<g>
	<path class="st0" d="M528,167.1C484.3,88,476.6,43,438.8,20.4C405.9-2.1,342.9-2.2,300.3,8.5C257.7-2.2,194.7-2.1,161.8,20.4
		C124,42.9,116.3,88,72.6,167.1C42.3,222-8.9,293,1.8,365c5.6,36,28.4,72.2,71,106.9c41.5,34.6,102.9,67.7,161.4,97.3
		c22.6,11.3,45.1,22.1,66.1,32.3c21-10.2,43.4-20.9,66.1-32.3c58.5-29.6,119.9-62.6,161.4-97.3c42.5-34.6,65.3-70.9,71.1-106.9
		C609.5,293,558.3,222.1,528,167.1z M300.2,521.6c-51.4-37.3-103.2-80.3-128.6-124.1c-26.9-43.8-27.3-88.4-10.6-129.3
		c3.9,6.4,8.8,12,14.8,16.7c42.3,30.4,107.8-38.5,124.4-63.2c16.5,24.7,82,93.6,124.4,63.2c6-4.7,11-10.3,14.8-16.7
		c16.6,40.8,16.2,85.5-10.6,129.3C403.5,441.2,351.6,484.2,300.2,521.6z M346.8,414.4c-5.1,17.6-24,43.4-46.6,43.4
		c-22.6,0-41.4-25.7-46.6-43.4c10.5,10.5,27.4,20.6,46.6,20.6C319.4,435,336.3,424.9,346.8,414.4z"/>
</g>
</svg>
