<?xml version="1.0" encoding="utf-8"?>
<!-- Generator: Adobe Illustrator 27.2.0, SVG Export Plug-In . SVG Version: 6.00 Build 0)  -->
<svg version="1.1" id="Layer_1" xmlns="http://www.w3.org/2000/svg" xmlns:xlink="http://www.w3.org/1999/xlink" x="0px" y="0px"
	 viewBox="0 0 340 60" style="enable-background:new 0 0 340 60;" xml:space="preserve">
<style type="text/css">
	.st0{fill:#E9315D;}
</style>
<g>
	<g>
		<path class="st0" d="M52.77,16.55C48.4,8.64,47.63,4.14,43.85,1.88C40.56-0.37,34.26-0.38,30,0.69
			c-4.26-1.07-10.56-1.06-13.85,1.19c-3.78,2.25-4.55,6.76-8.92,14.67c-3.03,5.49-8.15,12.59-7.08,19.79
			c0.56,3.6,2.84,7.22,7.1,10.69c4.15,3.46,10.29,6.77,16.14,9.73c2.26,1.13,4.51,2.21,6.61,3.23c2.1-1.02,4.34-2.09,6.61-3.23
			c5.85-2.96,11.99-6.26,16.14-9.73c4.25-3.46,6.53-7.09,7.11-10.69C60.92,29.14,55.8,22.05,52.77,16.55z M29.99,52
			c-5.14-3.73-10.32-8.03-12.86-12.41c-2.69-4.38-2.73-8.84-1.06-12.93c0.39,0.64,0.88,1.2,1.48,1.67
			c4.23,3.04,10.78-3.85,12.44-6.32c1.65,2.47,8.2,9.36,12.44,6.32c0.6-0.47,1.1-1.03,1.48-1.67c1.66,4.08,1.62,8.55-1.06,12.93
			C40.32,43.96,35.13,48.26,29.99,52z M34.65,41.28c-0.51,1.76-2.4,4.34-4.66,4.34s-4.14-2.57-4.66-4.34
			c1.05,1.05,2.74,2.06,4.66,2.06S33.6,42.33,34.65,41.28z"/>
	</g>
	<g>
		<path d="M111.58,11v30.34h-6.08V21.61l-8.13,19.73h-4.6l-8.17-19.73v19.73H78.5V11h6.91l9.65,22.56L104.71,11
			C104.71,11,111.58,11,111.58,11z"/>
		<path d="M140.31,17.26v24.08h-6.13V38.3c-0.79,1.04-1.8,1.86-3.06,2.45c-1.26,0.6-2.63,0.89-4.11,0.89c-1.88,0-3.55-0.4-5-1.19
			c-1.45-0.79-2.58-1.97-3.41-3.52c-0.82-1.55-1.24-3.39-1.24-5.54V17.26h6.08v13.26c0,1.91,0.48,3.38,1.43,4.41
			c0.96,1.03,2.26,1.54,3.91,1.54c1.68,0,3-0.51,3.95-1.54s1.43-2.5,1.43-4.41V17.26H140.31z"/>
		<path d="M183.36,19.63c1.81,1.81,2.71,4.34,2.71,7.58v14.12h-6.08v-13.3c0-1.88-0.48-3.32-1.43-4.32c-0.96-1-2.26-1.5-3.91-1.5
			c-1.65,0-2.96,0.5-3.93,1.5c-0.97,1-1.46,2.44-1.46,4.32v13.3h-6.08v-13.3c0-1.88-0.48-3.32-1.43-4.32c-0.96-1-2.26-1.5-3.91-1.5
			c-1.68,0-3,0.5-3.97,1.5c-0.97,1-1.46,2.44-1.46,4.32v13.3h-6.08V17.26h6.08v2.91c0.79-1.01,1.79-1.81,3.02-2.39
			c1.23-0.58,2.58-0.87,4.06-0.87c1.88,0,3.56,0.4,5.04,1.19c1.48,0.79,2.62,1.93,3.43,3.41c0.78-1.39,1.92-2.5,3.41-3.34
			s3.11-1.26,4.84-1.26C179.17,16.91,181.55,17.82,183.36,19.63z"/>
		<path d="M228.92,19.63c1.81,1.81,2.71,4.34,2.71,7.58v14.12h-6.08v-13.3c0-1.88-0.48-3.32-1.43-4.32c-0.95-1-2.26-1.5-3.91-1.5
			s-2.96,0.5-3.93,1.5c-0.97,1-1.46,2.44-1.46,4.32v13.3h-6.08v-13.3c0-1.88-0.48-3.32-1.43-4.32c-0.96-1-2.26-1.5-3.91-1.5
			c-1.68,0-3.01,0.5-3.98,1.5c-0.97,1-1.45,2.44-1.45,4.32v13.3h-6.08V17.26h6.08v2.91c0.78-1.01,1.79-1.81,3.02-2.39
			c1.23-0.58,2.59-0.87,4.06-0.87c1.88,0,3.57,0.4,5.04,1.19c1.48,0.79,2.62,1.93,3.43,3.41c0.78-1.39,1.92-2.5,3.41-3.34
			c1.49-0.84,3.11-1.26,4.84-1.26C224.72,16.91,227.11,17.82,228.92,19.63z"/>
		<path d="M260.45,17.26l-14.91,35.47h-6.47l5.21-11.99l-9.65-23.47h6.82l6.21,16.82l6.3-16.82H260.45z"/>
		<path d="M268.47,40.56c-1.7-0.72-3.04-1.77-4.02-3.13s-1.49-2.97-1.52-4.82h6.52c0.08,1.24,0.53,2.23,1.33,2.95
			c0.8,0.72,1.89,1.08,3.28,1.08c1.42,0,2.53-0.34,3.35-1.02c0.81-0.68,1.21-1.57,1.21-2.67c0-0.9-0.27-1.63-0.83-2.21
			c-0.55-0.58-1.24-1.03-2.07-1.37c-0.82-0.33-1.96-0.7-3.41-1.11c-1.97-0.58-3.57-1.15-4.8-1.71c-1.23-0.56-2.29-1.42-3.17-2.56
			c-0.89-1.14-1.32-2.67-1.32-4.58c0-1.79,0.45-3.36,1.34-4.69c0.9-1.33,2.16-2.35,3.78-3.06c1.62-0.71,3.48-1.06,5.57-1.06
			c3.13,0,5.67,0.76,7.63,2.28c1.95,1.52,3.04,3.64,3.24,6.37h-6.7c-0.06-1.04-0.5-1.9-1.33-2.58s-1.92-1.02-3.28-1.02
			c-1.19,0-2.14,0.31-2.85,0.91s-1.07,1.49-1.07,2.65c0,0.81,0.27,1.48,0.8,2.02s1.2,0.97,2,1.3c0.8,0.33,1.92,0.71,3.37,1.15
			c1.97,0.58,3.58,1.16,4.83,1.74c1.24,0.58,2.32,1.45,3.21,2.61c0.9,1.16,1.35,2.68,1.35,4.56c0,1.62-0.42,3.13-1.26,4.52
			c-0.84,1.39-2.07,2.5-3.7,3.32c-1.62,0.83-3.55,1.24-5.78,1.24C272.07,41.65,270.17,41.28,268.47,40.56z"/>
		<path d="M290.6,13.37c-0.71-0.68-1.07-1.53-1.07-2.54s0.36-1.86,1.07-2.54c0.71-0.68,1.6-1.02,2.67-1.02
			c1.07,0,1.96,0.34,2.67,1.02s1.07,1.53,1.07,2.54s-0.36,1.86-1.07,2.54c-0.71,0.68-1.6,1.02-2.67,1.02S291.31,14.05,290.6,13.37z
			 M296.27,17.26v24.08h-6.08V17.26H296.27z"/>
		<path d="M313.31,22.26h-4.21v19.08h-6.17V22.26h-2.74v-5h2.74v-1.21c0-2.95,0.84-5.13,2.52-6.52s4.21-2.04,7.6-1.95v5.12
			c-1.48-0.03-2.5,0.22-3.08,0.74c-0.58,0.52-0.87,1.46-0.87,2.82v1h4.21L313.31,22.26L313.31,22.26z"/>
		<path d="M340,17.26v24.08h-6.13V38.3c-0.78,1.04-1.8,1.86-3.07,2.45c-1.26,0.6-2.63,0.89-4.11,0.89c-1.89,0-3.55-0.4-5-1.19
			c-1.45-0.79-2.58-1.97-3.41-3.52s-1.24-3.39-1.24-5.54V17.26h6.08v13.26c0,1.91,0.48,3.38,1.43,4.41
			c0.95,1.03,2.26,1.54,3.91,1.54c1.68,0,3-0.51,3.95-1.54s1.43-2.5,1.43-4.41V17.26H340z"/>
	</g>
</g>
</svg>
