<?xml version="1.0" encoding="utf-8"?>
<!-- Generator: Adobe Illustrator 27.2.0, SVG Export Plug-In . SVG Version: 6.00 Build 0)  -->
<svg version="1.1" id="Layer_1" xmlns="http://www.w3.org/2000/svg" xmlns:xlink="http://www.w3.org/1999/xlink" x="0px" y="0px"
	 viewBox="0 0 340 60" style="enable-background:new 0 0 340 60;" xml:space="preserve">
<style type="text/css">
	.st0{fill:#E9315D;}
</style>
<g>
	<g>
		<path class="st0" d="M52.8,16.5c-4.4-7.9-5.1-12.4-8.9-14.7C40.6-0.4,34.3-0.4,30,0.7c-4.3-1.1-10.6-1.1-13.9,1.2
			c-3.8,2.2-4.6,6.8-8.9,14.7c-3,5.5-8.1,12.6-7.1,19.8C0.7,39.9,3,43.6,7.2,47c4.2,3.5,10.3,6.8,16.1,9.7c2.3,1.1,4.5,2.2,6.6,3.2
			c2.1-1,4.3-2.1,6.6-3.2c5.8-3,12-6.3,16.1-9.7c4.2-3.5,6.5-7.1,7.1-10.7C60.9,29.1,55.8,22,52.8,16.5z M30,52
			c-5.1-3.7-10.3-8-12.9-12.4c-2.7-4.4-2.7-8.8-1.1-12.9c0.4,0.6,0.9,1.2,1.5,1.7c4.2,3,10.8-3.9,12.4-6.3c1.6,2.5,8.2,9.4,12.4,6.3
			c0.6-0.5,1.1-1,1.5-1.7c1.7,4.1,1.6,8.5-1.1,12.9C40.3,44,35.1,48.3,30,52z M34.7,41.3c-0.5,1.8-2.4,4.3-4.7,4.3s-4.1-2.6-4.7-4.3
			c1,1,2.7,2.1,4.7,2.1S33.6,42.3,34.7,41.3z"/>
	</g>
	<g>
		<path class="st0" d="M111.6,11v30.3h-6.1V21.6l-8.1,19.7h-4.6l-8.2-19.7v19.7h-6.1V11h6.9l9.7,22.6l9.6-22.6H111.6z"/>
		<path class="st0" d="M140.3,17.3v24.1h-6.1v-3c-0.8,1-1.8,1.9-3.1,2.5c-1.3,0.6-2.6,0.9-4.1,0.9c-1.9,0-3.6-0.4-5-1.2
			c-1.4-0.8-2.6-2-3.4-3.5c-0.8-1.5-1.2-3.4-1.2-5.5V17.3h6.1v13.3c0,1.9,0.5,3.4,1.4,4.4c1,1,2.3,1.5,3.9,1.5c1.7,0,3-0.5,3.9-1.5
			s1.4-2.5,1.4-4.4V17.3H140.3z"/>
		<path class="st0" d="M183.4,19.6c1.8,1.8,2.7,4.3,2.7,7.6v14.1H180V28c0-1.9-0.5-3.3-1.4-4.3c-1-1-2.3-1.5-3.9-1.5
			c-1.6,0-3,0.5-3.9,1.5c-1,1-1.5,2.4-1.5,4.3v13.3h-6.1V28c0-1.9-0.5-3.3-1.4-4.3c-1-1-2.3-1.5-3.9-1.5c-1.7,0-3,0.5-4,1.5
			s-1.5,2.4-1.5,4.3v13.3h-6.1V17.3h6.1v2.9c0.8-1,1.8-1.8,3-2.4c1.2-0.6,2.6-0.9,4.1-0.9c1.9,0,3.6,0.4,5,1.2s2.6,1.9,3.4,3.4
			c0.8-1.4,1.9-2.5,3.4-3.3s3.1-1.3,4.8-1.3C179.2,16.9,181.6,17.8,183.4,19.6z"/>
		<path class="st0" d="M228.9,19.6c1.8,1.8,2.7,4.3,2.7,7.6v14.1h-6.1V28c0-1.9-0.5-3.3-1.4-4.3s-2.3-1.5-3.9-1.5s-3,0.5-3.9,1.5
			c-1,1-1.5,2.4-1.5,4.3v13.3h-6.1V28c0-1.9-0.5-3.3-1.4-4.3c-1-1-2.3-1.5-3.9-1.5c-1.7,0-3,0.5-4,1.5S198,26.1,198,28v13.3h-6.1
			V17.3h6.1v2.9c0.8-1,1.8-1.8,3-2.4c1.2-0.6,2.6-0.9,4.1-0.9c1.9,0,3.6,0.4,5,1.2c1.5,0.8,2.6,1.9,3.4,3.4c0.8-1.4,1.9-2.5,3.4-3.3
			s3.1-1.3,4.8-1.3C224.7,16.9,227.1,17.8,228.9,19.6z"/>
		<path class="st0" d="M260.5,17.3l-14.9,35.5h-6.5l5.2-12l-9.6-23.5h6.8l6.2,16.8l6.3-16.8L260.5,17.3L260.5,17.3z"/>
		<path class="st0" d="M268.5,40.6c-1.7-0.7-3-1.8-4-3.1s-1.5-3-1.5-4.8h6.5c0.1,1.2,0.5,2.2,1.3,3s1.9,1.1,3.3,1.1
			c1.4,0,2.5-0.3,3.4-1c0.8-0.7,1.2-1.6,1.2-2.7c0-0.9-0.3-1.6-0.8-2.2c-0.5-0.6-1.2-1-2.1-1.4c-0.8-0.3-2-0.7-3.4-1.1
			c-2-0.6-3.6-1.1-4.8-1.7c-1.2-0.6-2.3-1.4-3.2-2.6c-0.9-1.1-1.3-2.7-1.3-4.6c0-1.8,0.5-3.4,1.3-4.7c0.9-1.3,2.2-2.4,3.8-3.1
			c1.6-0.7,3.5-1.1,5.6-1.1c3.1,0,5.7,0.8,7.6,2.3c2,1.5,3,3.6,3.2,6.4h-6.7c-0.1-1-0.5-1.9-1.3-2.6s-1.9-1-3.3-1
			c-1.2,0-2.1,0.3-2.9,0.9c-0.7,0.6-1.1,1.5-1.1,2.6c0,0.8,0.3,1.5,0.8,2s1.2,1,2,1.3s1.9,0.7,3.4,1.1c2,0.6,3.6,1.2,4.8,1.7
			c1.2,0.6,2.3,1.5,3.2,2.6c0.9,1.2,1.4,2.7,1.4,4.6c0,1.6-0.4,3.1-1.3,4.5s-2.1,2.5-3.7,3.3c-1.6,0.8-3.5,1.2-5.8,1.2
			C272.1,41.7,270.2,41.3,268.5,40.6z"/>
		<path class="st0" d="M290.6,13.4c-0.7-0.7-1.1-1.5-1.1-2.5s0.4-1.9,1.1-2.5c0.7-0.7,1.6-1,2.7-1s2,0.3,2.7,1s1.1,1.5,1.1,2.5
			s-0.4,1.9-1.1,2.5c-0.7,0.7-1.6,1-2.7,1S291.3,14.1,290.6,13.4z M296.3,17.3v24.1h-6.1V17.3H296.3z"/>
		<path class="st0" d="M313.3,22.3h-4.2v19.1h-6.2V22.3h-2.7v-5h2.7V16c0-2.9,0.8-5.1,2.5-6.5s4.2-2,7.6-1.9v5.1
			c-1.5,0-2.5,0.2-3.1,0.7c-0.6,0.5-0.9,1.5-0.9,2.8v1h4.2V22.3L313.3,22.3z"/>
		<path class="st0" d="M340,17.3v24.1h-6.1v-3c-0.8,1-1.8,1.9-3.1,2.5c-1.3,0.6-2.6,0.9-4.1,0.9c-1.9,0-3.5-0.4-5-1.2
			c-1.5-0.8-2.6-2-3.4-3.5s-1.2-3.4-1.2-5.5V17.3h6.1v13.3c0,1.9,0.5,3.4,1.4,4.4c1,1,2.3,1.5,3.9,1.5c1.7,0,3-0.5,4-1.5
			s1.4-2.5,1.4-4.4V17.3H340z"/>
	</g>
</g>
</svg>
