<?xml version="1.0" encoding="utf-8"?>
<!-- Generator: Adobe Illustrator 27.2.0, SVG Export Plug-In . SVG Version: 6.00 Build 0)  -->
<svg version="1.1" id="Layer_1" xmlns="http://www.w3.org/2000/svg" xmlns:xlink="http://www.w3.org/1999/xlink" x="0px" y="0px"
	 viewBox="0 0 600 600" style="enable-background:new 0 0 600 600;" xml:space="preserve">
<style type="text/css">
	.st0{fill:#E9315D;}
	.st1{fill:#FFFFFF;}
</style>
<rect x="0.3" y="-0.3" class="st0" width="600" height="600"/>
<g>
	<path class="st1" d="M462.9,203.7c-31.2-56.4-36.6-88.5-63.6-104.6c-23.5-16-68.4-16.1-98.7-8.5c-30.4-7.6-75.3-7.6-98.7,8.5
		c-26.9,16-32.4,48.2-63.6,104.6c-21.6,39.1-58.1,89.8-50.5,141.1c4,25.7,20.2,51.5,50.6,76.2c29.6,24.7,73.4,48.3,115.1,69.4
		c16.1,8.1,32.2,15.8,47.1,23c15-7.3,30.9-14.9,47.1-23c41.7-21.1,85.5-44.6,115.1-69.4c30.3-24.7,46.6-50.5,50.7-76.2
		C521,293.4,484.5,242.9,462.9,203.7z M300.5,456.4c-36.6-26.6-73.6-57.3-91.7-88.5c-19.2-31.2-19.5-63-7.6-92.2
		c2.8,4.6,6.3,8.6,10.6,11.9c30.2,21.7,76.9-27.4,88.7-45.1c11.8,17.6,58.5,66.7,88.7,45.1c4.3-3.4,7.8-7.3,10.6-11.9
		c11.8,29.1,11.5,61-7.6,92.2C374.1,399.1,337.1,429.7,300.5,456.4z M333.7,380c-3.6,12.5-17.1,30.9-33.2,30.9s-29.5-18.3-33.2-30.9
		c7.5,7.5,19.5,14.7,33.2,14.7C314.1,394.7,326.2,387.5,333.7,380z"/>
</g>
</svg>
