<?xml version="1.0" encoding="utf-8"?>
<!-- Generator: Adobe Illustrator 18.0.0, SVG Export Plug-In . SVG Version: 6.00 Build 0)  -->
<!DOCTYPE svg PUBLIC "-//W3C//DTD SVG 1.1//EN" "http://www.w3.org/Graphics/SVG/1.1/DTD/svg11.dtd">
<svg version="1.1" id="Layer_1" xmlns="http://www.w3.org/2000/svg" xmlns:xlink="http://www.w3.org/1999/xlink" x="0px" y="0px"
	 width="447.5px" height="450px" viewBox="0 0 447.5 450" enable-background="new 0 0 447.5 450" xml:space="preserve">
<g>
	<g>
		<g>
			<path fill="#E82E5B" d="M447.5,289.1"/>
			<path fill="#E82E5B" d="M444,309.1"/>
			<path fill="#E82E5B" d="M430.9,136.7C403.3,38.8,314.6-17.4,238.1,4.8C184.9,20.2,147.2,70.6,133.9,134
				C70.5,147.3,20.1,185,4.7,238.2C-19.4,321.6,51.4,411.5,163,438.9c24.9,6.1,54.2,9.7,85.1,10.7c57.2,1.8,89.8-2.8,138.6-27.2
				c5.5-2.8,10.2-7,13.5-12.2c17.3-27.3,30.3-54,38.6-81.3c6.3-27.1,10-73.6,3.2-70.6c-9.9,4.4-6.4,36.9-19.3,61.2
				c-29.3,55.2-68.4,65.5-71.6,61.9c-3.1-3.6,20.9-33.2,27.2-37.4c6.4-4.2,30.2-20.9,28.1-30.2c-1.4-6.3-16.3,3.7-27.9,11.1
				c-5.1,3.3-9.1,5.2-11.2,5.6c-7.2,1.3-38.5,14.7-48.1,22.8c-20.5,17.1-25.6,30.2-34.1,38.2c-44.4,8.5-92.2-4.8-126.1-40
				c-51.1-53.2-51-138.4,0.1-191.5c46.6-48.5,119.8-55.4,174-20.8c0.6-3.7,2.3-6.7,5-8.9c8.4-6.6,20.8,1.3,31.4,14.8
				c10.5,13.5,15.3,27.4,6.9,34c-0.5,0.4-1.1,0.8-1.7,1.1c22.2,34.1,27.9,75.8,17,113.7c-0.2,0.6,0.6,1,1,0.5
				C405.2,278.1,452.5,213.1,430.9,136.7z"/>
		</g>
		<g>
			<path fill="#E82E5B" d="M234.8,264.6c-0.4,0.1-0.7,0.4-0.8,0.8c-0.4,9.4-4.2,18.1-10.7,24.5c-6.4,6.4-15.1,10.2-24.5,10.7
				c-0.4,0-0.8,0.3-0.8,0.8c-0.1,0.4,0.2,0.8,0.6,1c11.2,4.2,27.2,2.7,35.1-5.3c9.2-8,6.2-20.7,2-31.8
				C235.7,264.8,235.3,264.5,234.8,264.6z"/>
			<path fill="#E82E5B" d="M304.3,195.2c-0.4,0.1-0.7,0.4-0.8,0.8c-0.4,9.4-4.2,18.1-10.7,24.5c-6.4,6.4-15.1,10.2-24.5,10.7
				c-0.4,0-0.8,0.3-0.8,0.8c-0.1,0.4,0.2,0.8,0.6,1c11.2,4.2,24.8,4.8,32.7-3.2c9.2-8,8.6-22.8,4.4-33.9
				C305.2,195.4,304.8,195.1,304.3,195.2z"/>
		</g>
		<path fill="#E82E5B" d="M92.2,64.7c-3.5-2.5-7.4-4.9-11.4-6.7c-4.1-1.8-8.1-3.4-12.4-4.3c-2.1-0.4-4.1-0.9-6.2-1.2
			c-2.1-0.3-4.1-0.4-6.2-0.4c-4.1-0.1-8.1,0.4-11.8,1.2c-3.7,0.9-7.2,1.9-10.3,3.5c-1.6,0.9-3.1,1.5-4.4,2.4
			c-1.5,0.9-2.7,1.8-3.8,2.7c-2.4,1.8-4.4,3.8-5.9,5.6c-0.7,0.9-1.5,1.8-1.9,2.5c-0.6,0.9-1,1.5-1.5,2.1c-0.4,0.6-0.6,1.2-0.7,1.5
			C15.2,74,15.2,74,15.2,74s0.4,0.7,1.5,2.2c0.4,0.6,0.9,1.5,1.5,2.4c0.6,0.9,1.2,1.9,1.9,3.1c1.5,2.2,3.1,4.6,4.9,7.2
			c1.8,2.5,3.5,5.3,5.6,8c1.9,2.7,4,5.3,5.9,7.7c2.1,2.5,4.1,4.7,6.2,6.8c2.2,1.9,4.4,4,6.7,5.6c2.2,1.5,4.6,3.1,7.1,4.1
			c2.5,1.2,5,2.2,7.7,2.8c2.7,0.7,5.5,1.2,8.4,1.5c3,0.4,5.9,0.4,9,0.4c3.1-0.1,6.2-0.1,9.5-0.6c1.6-0.1,3.1-0.4,4.7-0.6
			c1.6-0.3,3.1-0.4,4.6-0.6c3-0.4,5.8-0.9,8.1-1.5c0.4-0.1,1-0.1,1.5-0.4c-0.9-0.9-1.8-1.8-2.8-2.7c-2.5-2.5-5.6-5.3-8.9-8.3
			c-3.3-3-6.9-6.1-10.8-8.9c-1.8-1.5-3.8-2.8-5.8-4.3c-1.9-1.5-3.8-2.7-5.6-3.8c-1.8-1.2-3.7-2.2-5.5-3.4c-1.8-1-3.5-1.9-5-2.8
			c-1.6-0.9-3.1-1.5-4.4-1.9c-1.3-0.6-2.5-1-3.5-1.3c-1.9-0.6-3.1-1-3.1-1s1.2,0.1,3.3,0.4c1,0.1,2.4,0.3,3.8,0.6
			c1.5,0.4,3.1,0.6,4.9,1.2c1.8,0.6,3.5,1.2,5.6,1.9c1.9,0.7,4.1,1.5,6.2,2.5c2.1,0.9,4.3,1.9,6.5,3s4.4,2.2,6.5,3.3
			c4.4,2.2,8.6,4.9,12.4,7.2s7.5,4.7,10.5,6.8c1,0.7,1.9,1.5,3,2.1c0-0.1,0-0.4,0-0.6c0-2.5-0.3-5.3-0.7-8.4
			c-0.4-3.3-1.5-6.5-2.7-9.9c-0.6-1.8-1.3-3.4-2.1-5.2c-0.7-1.8-1.8-3.5-2.8-5.2c-2.1-3.4-4.6-6.8-7.4-9.9
			C99,70.4,95.7,67.4,92.2,64.7z"/>
	</g>
</g>
</svg>
