<?xml version="1.0" encoding="utf-8"?>
<!-- Generator: Adobe Illustrator 28.2.0, SVG Export Plug-In . SVG Version: 6.00 Build 0)  -->
<svg version="1.1" id="Layer_1" xmlns="http://www.w3.org/2000/svg" xmlns:xlink="http://www.w3.org/1999/xlink" x="0px" y="0px"
	 viewBox="0 0 400.7 70" style="enable-background:new 0 0 400.7 70;" xml:space="preserve">
<style type="text/css">
	.st0{fill:#E9315D;}
</style>
<g>
	<g>
		<path class="st0" d="M93.1,42.4c0,0.9-0.3,1.7-1,2.4s-1.4,1-2.4,1h-0.1c-0.9,0-1.7-0.3-2.4-1c-0.7-0.6-1-1.4-1-2.4V20.5
			c0-1.7,0.6-3.2,1.8-4.4c1.2-1.2,2.7-1.8,4.4-1.8h0.1c1.4,0,2.6,0.4,3.7,1.2c1.1,0.8,1.8,1.9,2.2,3.2l5.3,18.3l5.2-18.3
			c0.4-1.3,1.1-2.4,2.2-3.2s2.3-1.2,3.7-1.2h0.1c1.7,0,3.2,0.6,4.4,1.8c1.2,1.2,1.8,2.7,1.8,4.4v21.9c0,0.9-0.3,1.7-1,2.4
			c-0.6,0.7-1.4,1-2.4,1h-0.1c-0.9,0-1.7-0.3-2.4-1c-0.6-0.6-1-1.4-1-2.4V22.7l-5.5,19.1c-0.3,1.1-1,2.1-1.9,2.8s-2,1.1-3.2,1.1
			h-0.1c-1.2,0-2.3-0.4-3.2-1.1c-0.9-0.7-1.6-1.6-1.9-2.8l-5.5-19.1L93.1,42.4L93.1,42.4z"/>
		<path class="st0" d="M125.9,26c0-1,0.3-1.8,1-2.5s1.5-1,2.5-1h0.1c1,0,1.8,0.3,2.5,1s1,1.5,1,2.5v8.7c0,2.6,0.7,4.3,2.2,5
			s3.1,0.6,4.7-0.4c1.4-0.9,2.2-1.8,2.4-2.9c0-0.1,0-0.3,0.1-0.5l0,0V26c0-1,0.3-1.8,1-2.5s1.5-1,2.5-1h0.1c1,0,1.8,0.3,2.5,1
			s1,1.5,1,2.5v17c0,0.6-0.2,1.2-0.7,1.6c-0.4,0.4-1,0.7-1.6,0.7h-2.7c-0.6,0-1.2-0.2-1.6-0.7c-0.5-0.4-0.7-1-0.7-1.6l0,0
			c-2.9,1.7-4.7,2.6-5.4,2.8c-3.5,0.7-6.3-0.2-8.4-2.8c-1.8-2.2-2.7-5.2-2.7-8.8L125.9,26L125.9,26z"/>
		<path class="st0" d="M191.4,42.5c0,0.9-0.3,1.7-1,2.4c-0.6,0.6-1.4,1-2.4,1l0,0c-0.9,0-1.7-0.3-2.4-1c-0.6-0.7-1-1.4-1-2.4V32.3
			c0-1.1-0.4-2.1-1.2-2.9s-1.8-1.2-2.9-1.1c-1.1,0-2,0.5-2.7,1.3s-1.1,1.8-1.1,2.9v10.1c0,0.9-0.3,1.7-1,2.4c-0.7,0.6-1.4,1-2.4,1
			h-0.7c-0.9,0-1.7-0.3-2.4-1s-1-1.4-1-2.4V32.3c0-1.1-0.4-2.1-1.2-2.9s-1.8-1.2-2.9-1.1c-1.1,0-2,0.5-2.7,1.3s-1.1,1.8-1.1,2.9
			v10.1c0,0.9-0.3,1.7-1,2.4c-0.6,0.6-1.4,1-2.4,1h-0.5c-0.9,0-1.7-0.3-2.4-1c-0.6-0.7-1-1.4-1-2.4V25.3c0-0.6,0.2-1.2,0.7-1.6
			c0.4-0.5,1-0.7,1.6-0.7h2.7c0.6,0,1.2,0.2,1.6,0.7c0.4,0.4,0.7,1,0.7,1.6l0,0c0.2-0.1,0.4-0.3,0.7-0.6c0.4-0.4,0.7-0.7,0.9-0.8
			c0.8-0.7,1.6-1.1,2.5-1.3c4-0.8,7.1,0.5,9.1,3.9h0.2c2.4-2.3,4.2-3.6,5.4-3.9c3.5-0.7,6.3,0.2,8.4,2.8c1.8,2.2,2.7,5.2,2.7,8.8
			L191.4,42.5L191.4,42.5L191.4,42.5z"/>
		<path class="st0" d="M233.2,42.5c0,0.9-0.3,1.7-1,2.4c-0.6,0.6-1.4,1-2.4,1h-0.1c-0.9,0-1.7-0.3-2.4-1c-0.6-0.7-1-1.4-1-2.4V32.3
			c0-1.1-0.4-2.1-1.2-2.9s-1.8-1.2-2.9-1.1c-1.1,0-2,0.5-2.7,1.3s-1.1,1.8-1.1,2.9v10.1c0,0.9-0.3,1.7-1,2.4c-0.7,0.6-1.4,1-2.4,1
			h-0.7c-0.9,0-1.7-0.3-2.4-1s-1-1.4-1-2.4V32.3c0-1.1-0.4-2.1-1.2-2.9s-1.8-1.2-2.9-1.1c-1.1,0-2,0.5-2.7,1.3s-1.1,1.8-1.1,2.9
			v10.1c0,0.9-0.3,1.7-1,2.4c-0.6,0.6-1.4,1-2.4,1h-0.5c-0.9,0-1.7-0.3-2.4-1c-0.6-0.7-1-1.4-1-2.4V25.3c0-0.6,0.2-1.2,0.7-1.6
			c0.4-0.5,1-0.7,1.6-0.7h2.7c0.6,0,1.2,0.2,1.6,0.7c0.4,0.4,0.7,1,0.7,1.6l0,0c0.2-0.1,0.4-0.3,0.7-0.6c0.4-0.4,0.7-0.7,0.9-0.8
			c0.8-0.7,1.6-1.1,2.5-1.3c4-0.8,7.1,0.5,9.1,3.9h0.2c2.4-2.3,4.2-3.6,5.4-3.9c3.5-0.7,6.3,0.2,8.4,2.8c1.8,2.2,2.7,5.2,2.7,8.8
			L233.2,42.5L233.2,42.5L233.2,42.5z"/>
		<path class="st0" d="M254.7,23.2c1.1,0,2,0.4,2.7,1.4c0.6,0.9,0.8,1.9,0.4,3c-4.7,13.3-7.1,20.2-7.2,20.6
			c-0.8,2.6-2.2,4.5-4.2,5.9c-2.2,1.5-4.7,2-7.5,1.4c-0.3-0.1-0.7-0.2-1.2-0.4c-1.1-0.5-1.6-1.3-1.6-2.5l0,0c0-0.7,0.3-1.4,0.8-1.9
			s1.1-0.8,1.9-0.8c0.7,0,1.3-0.2,1.9-0.5c1.5-0.7,2.2-2.4,2.2-5v-0.1c-0.5-2.8-2.7-8.3-6.3-16.5c-0.5-1.1-0.4-2.1,0.2-3.1
			c0.6-1,1.6-1.5,2.7-1.5h0.6c0.7,0,1.3,0.2,1.9,0.6c0.6,0.4,1,0.9,1.2,1.6l4.5,13.6c0.5-2.1,1.7-6.6,3.9-13.6
			c0.2-0.7,0.6-1.2,1.2-1.7C253.2,23.4,253.9,23.1,254.7,23.2L254.7,23.2L254.7,23.2L254.7,23.2z"/>
		<path class="st0" d="M269.6,42.1c0,1-0.4,1.9-1.1,2.6c-0.7,0.7-1.6,1.1-2.6,1.1h-0.1c-1,0-1.9-0.4-2.6-1.1
			c-0.7-0.7-1.1-1.6-1.1-2.6V18.2c0-1,0.4-1.9,1.1-2.6c0.7-0.7,1.6-1.1,2.6-1.1h2.2c1.3,0,2.3,0.5,3.1,1.6l13.3,19.3V18.2
			c0-1,0.4-1.9,1.1-2.6c0.7-0.7,1.6-1.1,2.6-1.1h0.1c1,0,1.9,0.4,2.6,1.1s1.1,1.6,1.1,2.6V40c0,1.6-0.6,3-1.7,4.2s-2.5,1.7-4.2,1.7
			h-0.1c-2.2,0-3.9-0.9-5-2.8l-11.2-18.3L269.6,42.1L269.6,42.1L269.6,42.1z"/>
		<path class="st0" d="M295.5,34.2c0-3.2,1.1-6,3.3-8.3c2.2-2.3,4.8-3.4,7.8-3.4c2.6,0,4.4,1.1,5.4,3.4l0,0c0-0.7,0.3-1.4,0.8-1.9
			s1.1-0.8,1.9-0.8h1.9c0.7,0,1.4,0.3,1.9,0.8s0.8,1.2,0.8,1.9v18.4c0,0.4-0.1,0.8-0.4,1c-0.3,0.3-0.6,0.4-1,0.4h-3
			c-0.5,0-1.1-0.4-1.9-1.3c-0.3-0.3-0.7-0.6-1.2-0.6c-0.5-0.1-0.9,0-1.3,0.3c-1.6,1.1-2.9,1.6-3.8,1.6c-3.1,0-5.7-1.1-7.8-3.4
			C296.6,40.2,295.5,37.4,295.5,34.2z M302.4,34c0,1.7,0.5,3.2,1.4,4.5c0.9,1.2,2.1,1.8,3.4,1.8c0.8,0.1,1.6,0,2.4-0.2
			c1.6-0.5,2.4-1.8,2.4-3.7v-5.8c-0.3-0.9-1.2-1.7-2.5-2.2c-1.5-0.6-3.1-0.5-4.6,0.2c-0.7,0.3-1.3,1-1.8,2c-0.4,0.9-0.6,2-0.6,3.1
			L302.4,34L302.4,34z"/>
		<path class="st0" d="M347.6,42.5c0,1-0.3,1.8-1,2.5s-1.5,1-2.5,1H344c-1,0-1.8-0.3-2.5-1s-1-1.5-1-2.5v-8.7c0-2.6-0.7-4.3-2.2-5
			s-3.1-0.6-4.7,0.4c-1.4,0.9-2.2,1.8-2.4,2.9c0,0.1,0,0.3-0.1,0.5l0,0v9.8c0,1-0.3,1.8-1,2.5s-1.5,1-2.5,1h-0.1c-1,0-1.8-0.3-2.5-1
			s-1-1.5-1-2.5v-17c0-0.6,0.2-1.2,0.7-1.6c0.5-0.5,1-0.7,1.7-0.7h2.7c0.6,0,1.2,0.2,1.6,0.7c0.4,0.4,0.7,1,0.7,1.6l0,0
			c2.9-1.7,4.7-2.6,5.4-2.8c3.5-0.7,6.3,0.2,8.4,2.8c1.8,2.3,2.7,5.2,2.7,8.8L347.6,42.5z"/>
		<path class="st0" d="M376,42.5c0,1-0.3,1.8-1,2.5s-1.5,1-2.5,1h-0.1c-1,0-1.8-0.3-2.5-1s-1-1.5-1-2.5v-8.7c0-2.6-0.7-4.3-2.2-5
			s-3.1-0.6-4.7,0.4c-1.4,0.9-2.2,1.8-2.4,2.9c0,0.1,0,0.3-0.1,0.5l0,0v9.8c0,1-0.3,1.8-1,2.5s-1.5,1-2.5,1h-0.1c-1,0-1.8-0.3-2.5-1
			s-1-1.5-1-2.5v-17c0-0.6,0.2-1.2,0.7-1.6c0.5-0.5,1-0.7,1.7-0.7h2.7c0.6,0,1.2,0.2,1.6,0.7c0.4,0.4,0.7,1,0.7,1.6l0,0
			c2.9-1.7,4.7-2.6,5.4-2.8c3.5-0.7,6.3,0.2,8.4,2.8c1.8,2.3,2.7,5.2,2.7,8.8L376,42.5z"/>
		<path class="st0" d="M397.4,23.2c1.1,0,2,0.4,2.7,1.4c0.6,0.9,0.8,1.9,0.4,3c-4.7,13.3-7.1,20.2-7.2,20.6
			c-0.8,2.6-2.2,4.5-4.2,5.9c-2.2,1.5-4.7,2-7.5,1.4c-0.3-0.1-0.7-0.2-1.2-0.4c-1.1-0.5-1.6-1.3-1.6-2.5l0,0c0-0.7,0.3-1.4,0.8-1.9
			s1.1-0.8,1.9-0.8c0.7,0,1.3-0.2,1.9-0.5c1.5-0.7,2.2-2.4,2.2-5v-0.1c-0.5-2.8-2.7-8.3-6.3-16.5c-0.5-1.1-0.4-2.1,0.2-3.1
			s1.6-1.5,2.7-1.5h0.6c0.7,0,1.3,0.2,1.9,0.6s1,0.9,1.2,1.6l4.5,13.6c0.5-2.1,1.7-6.6,3.9-13.6c0.2-0.7,0.6-1.2,1.2-1.7
			C395.9,23.4,396.6,23.1,397.4,23.2L397.4,23.2L397.4,23.2L397.4,23.2z"/>
	</g>
	<g>
		<g>
			<g>
				<path class="st0" d="M69.7,45"/>
				<path class="st0" d="M69.2,48.2"/>
				<path class="st0" d="M67.1,21.3C62.8,6,49-2.7,37.1,0.8C28.8,3.2,22.9,11,20.9,20.9c-9.9,2-17.8,7.9-20.2,16.2
					c-3.8,13,7.3,27,24.7,31.3c3.9,1,8.4,1.5,13.3,1.7c8.9,0.3,14-0.4,21.6-4.2c0.9-0.4,1.6-1.1,2.1-1.9c2.7-4.3,4.7-8.4,6-12.7
					c1-4.2,1.6-11.5,0.5-11c-1.5,0.7-1,5.7-3,9.5c-4.6,8.6-10.7,10.2-11.2,9.6s3.3-5.2,4.2-5.8c1-0.7,4.7-3.3,4.4-4.7
					c-0.2-1-2.5,0.6-4.3,1.7c-0.8,0.5-1.4,0.8-1.7,0.9c-1.1,0.2-6,2.3-7.5,3.6c-3.2,2.7-4,4.7-5.3,6c-6.9,1.3-14.4-0.7-19.6-6.2
					c-8-8.3-7.9-21.6,0-29.8c7.3-7.6,18.7-8.6,27.1-3.2c0.1-0.6,0.4-1,0.8-1.4c1.3-1,3.2,0.2,4.9,2.3c1.6,2.1,2.4,4.3,1.1,5.3
					c-0.1,0.1-0.2,0.1-0.3,0.2c3.5,5.3,4.3,11.8,2.6,17.7c0,0.1,0.1,0.2,0.2,0.1C63.1,43.3,70.5,33.2,67.1,21.3z"/>
			</g>
			<g>
				<path class="st0" d="M36.6,41.2C36.5,41.2,36.5,41.3,36.6,41.2c-0.2,1.6-0.8,2.9-1.8,3.9s-2.4,1.6-3.8,1.7c-0.1,0-0.1,0-0.1,0.1
					s0,0.1,0.1,0.2c1.7,0.7,4.2,0.4,5.5-0.8c1.4-1.2,1-3.2,0.3-5C36.7,41.3,36.7,41.2,36.6,41.2z"/>
				<path class="st0" d="M47.4,30.4c-0.1,0-0.1,0.1-0.1,0.1c-0.1,1.5-0.7,2.8-1.7,3.8s-2.4,1.6-3.8,1.7c-0.1,0-0.1,0-0.1,0.1
					s0,0.1,0.1,0.2c1.7,0.7,3.9,0.7,5.1-0.5c1.4-1.2,1.3-3.6,0.7-5.3C47.5,30.4,47.5,30.4,47.4,30.4z"/>
			</g>
			<path class="st0" d="M14.4,10.1c-0.6-0.4-1.2-0.8-1.8-1c-0.6-0.3-1.3-0.5-1.9-0.7c-0.3-0.1-0.6-0.1-1-0.2c-0.3,0-0.6-0.1-1-0.1
				c-0.6,0-1.3,0.1-1.8,0.2C6.3,8.4,5.8,8.6,5.3,8.9C5,9,4.8,9.1,4.6,9.2C4.3,9.4,4.2,9.5,4,9.6c-0.4,0.3-0.7,0.6-0.9,0.9
				c-0.1,0.1-0.2,0.3-0.3,0.4c-0.1,0.1-0.2,0.2-0.2,0.3c-0.1,0.1-0.1,0.2-0.1,0.2c0,0.1,0,0.1,0,0.1s0.1,0.1,0.2,0.3
				c0.1,0.1,0.1,0.2,0.2,0.4c0.1,0.1,0.2,0.3,0.3,0.5C3.4,13,3.7,13.4,4,13.8c0.3,0.4,0.6,0.8,0.9,1.2s0.6,0.8,0.9,1.2
				c0.3,0.4,0.6,0.7,1,1.1c0.3,0.3,0.7,0.6,1,0.9c0.3,0.2,0.7,0.5,1.1,0.6c0.4,0.2,0.8,0.3,1.2,0.4s0.9,0.2,1.3,0.2
				c0.5,0.1,0.9,0.1,1.4,0.1s1,0,1.5-0.1c0.3,0,0.5-0.1,0.7-0.1c0.3,0,0.5-0.1,0.7-0.1c0.5-0.1,0.9-0.1,1.3-0.2c0.1,0,0.2,0,0.2-0.1
				c-0.1-0.1-0.3-0.3-0.4-0.4c-0.4-0.4-0.9-0.8-1.4-1.3s-1.1-0.9-1.7-1.4c-0.3-0.2-0.6-0.4-0.9-0.7c-0.3-0.2-0.6-0.4-0.9-0.6
				c-0.3-0.2-0.6-0.3-0.9-0.5c-0.3-0.2-0.6-0.3-0.8-0.4c-0.3-0.1-0.5-0.2-0.7-0.3s-0.4-0.2-0.6-0.2c-0.3-0.1-0.5-0.2-0.5-0.2
				s0.2,0,0.5,0.1c0.2,0,0.4,0,0.6,0.1c0.2,0.1,0.5,0.1,0.8,0.2c0.3,0.1,0.6,0.2,0.9,0.3c0.3,0.1,0.6,0.2,1,0.4
				c0.3,0.1,0.7,0.3,1,0.5s0.7,0.3,1,0.5c0.7,0.3,1.3,0.8,1.9,1.1c0.6,0.4,1.2,0.7,1.6,1.1c0.2,0.1,0.3,0.2,0.5,0.3v-0.1
				c0-0.4,0-0.8-0.1-1.3s-0.2-1-0.4-1.5c-0.1-0.3-0.2-0.5-0.3-0.8c-0.1-0.3-0.3-0.6-0.4-0.8c-0.3-0.5-0.7-1.1-1.2-1.5
				C15.4,11,14.9,10.5,14.4,10.1z"/>
		</g>
	</g>
</g>
</svg>
