<?xml version="1.0" encoding="utf-8"?>
<!-- Generator: Adobe Illustrator 28.2.0, SVG Export Plug-In . SVG Version: 6.00 Build 0)  -->
<svg version="1.1" id="Layer_1" xmlns="http://www.w3.org/2000/svg" xmlns:xlink="http://www.w3.org/1999/xlink" x="0px" y="0px"
	 viewBox="0 0 600 600" style="enable-background:new 0 0 600 600;" xml:space="preserve">
<style type="text/css">
	.st0{fill:#FFFFFF;}
	.st1{fill:#E9315D;}
</style>
<rect class="st0" width="600" height="600"/>
<g>
	<g>
		<g>
			<path class="st1" d="M513.2,361.1"/>
			<path class="st1" d="M509.8,380.2"/>
			<path class="st1" d="M497.3,215.9C471,122.7,386.6,69.1,313.7,90.3c-50.7,14.7-86.6,62.7-99.3,123.1
				C154,226,106,261.9,91.3,312.6c-23,79.4,44.5,165.1,150.8,191.2c23.7,5.8,51.6,9.2,81.1,10.2c54.5,1.7,85.5-2.7,132-25.9
				c5.2-2.7,9.7-6.7,12.9-11.6c16.5-26,28.9-51.4,36.8-77.4c6-25.8,9.5-70.1,3-67.3c-9.4,4.2-6.1,35.2-18.4,58.3
				c-27.9,52.6-65.2,62.4-68.2,59c-3-3.4,19.9-31.6,25.9-35.6c6.1-4,28.8-19.9,26.8-28.8c-1.3-6-15.5,3.5-26.6,10.6
				c-4.9,3.1-8.7,5-10.7,5.3c-6.9,1.2-36.7,14-45.8,21.7c-19.5,16.3-24.4,28.8-32.5,36.4c-42.3,8.1-87.8-4.6-120.1-38.1
				c-48.7-50.7-48.6-131.8,0.1-182.4c44.4-46.2,114.1-52.8,165.8-19.8c0.6-3.5,2.2-6.4,4.8-8.5c8-6.3,19.8,1.2,29.9,14.1
				c10,12.9,14.6,26.1,6.6,32.4c-0.5,0.4-1,0.8-1.6,1c21.1,32.5,26.6,72.2,16.2,108.3c-0.2,0.6,0.6,1,1,0.5
				C472.9,350.6,517.9,288.7,497.3,215.9z"/>
		</g>
		<g>
			<path class="st1" d="M310.5,337.8c-0.4,0.1-0.7,0.4-0.8,0.8c-0.4,9-4,17.2-10.2,23.3c-6.1,6.1-14.4,9.7-23.3,10.2
				c-0.4,0-0.8,0.3-0.8,0.8c-0.1,0.4,0.2,0.8,0.6,1c10.7,4,25.9,2.6,33.4-5c8.8-7.6,5.9-19.7,1.9-30.3
				C311.4,338,311,337.7,310.5,337.8z"/>
			<path class="st1" d="M376.7,271.6c-0.4,0.1-0.7,0.4-0.8,0.8c-0.4,9-4,17.2-10.2,23.3c-6.1,6.1-14.4,9.7-23.3,10.2
				c-0.4,0-0.8,0.3-0.8,0.8c-0.1,0.4,0.2,0.8,0.6,1c10.7,4,23.6,4.6,31.2-3c8.8-7.6,8.2-21.7,4.2-32.3
				C377.6,271.8,377.2,271.6,376.7,271.6z"/>
		</g>
		<path class="st1" d="M174.7,147.3c-3.3-2.4-7-4.7-10.9-6.4c-3.9-1.7-7.7-3.2-11.8-4.1c-2-0.4-3.9-0.9-5.9-1.1
			c-2-0.3-3.9-0.4-5.9-0.4c-3.9-0.1-7.7,0.4-11.2,1.1c-3.5,0.9-6.9,1.8-9.8,3.3c-1.5,0.9-3,1.4-4.2,2.3c-1.4,0.9-2.6,1.7-3.6,2.6
			c-2.3,1.7-4.2,3.6-5.6,5.3c-0.7,0.9-1.4,1.7-1.8,2.4c-0.6,0.9-1,1.4-1.4,2c-0.4,0.6-0.6,1.1-0.7,1.4c-0.5,0.4-0.5,0.4-0.5,0.4
			s0.4,0.7,1.4,2.1c0.4,0.6,0.9,1.4,1.4,2.3c0.6,0.9,1.1,1.8,1.8,3c1.4,2.1,3,4.4,4.7,6.9c1.7,2.4,3.3,5,5.3,7.6
			c1.8,2.6,3.8,5,5.6,7.3c2,2.4,3.9,4.5,5.9,6.5c2.1,1.8,4.2,3.8,6.4,5.3c2.1,1.4,4.4,3,6.8,3.9c2.4,1.1,4.8,2.1,7.3,2.7
			c2.6,0.7,5.2,1.1,8,1.4c2.9,0.4,5.6,0.4,8.6,0.4c3-0.1,5.9-0.1,9.1-0.6c1.5-0.1,3-0.4,4.5-0.6c1.5-0.3,3-0.4,4.4-0.6
			c2.9-0.4,5.5-0.9,7.7-1.4c0.4-0.1,1-0.1,1.4-0.4c-0.9-0.9-1.7-1.7-2.7-2.6c-2.4-2.4-5.3-5-8.5-7.9c-3.1-2.9-6.6-5.8-10.3-8.5
			c-1.7-1.4-3.6-2.7-5.5-4.1c-1.8-1.4-3.6-2.6-5.3-3.6c-1.7-1.1-3.5-2.1-5.2-3.2c-1.7-1-3.3-1.8-4.8-2.7c-1.5-0.9-3-1.4-4.2-1.8
			c-1.2-0.6-2.4-1-3.3-1.2c-1.8-0.6-3-1-3-1s1.1,0.1,3.1,0.4c1,0.1,2.3,0.3,3.6,0.6c1.4,0.4,3,0.6,4.7,1.1c1.7,0.6,3.3,1.1,5.3,1.8
			c1.8,0.7,3.9,1.4,5.9,2.4c2,0.9,4.1,1.8,6.2,2.9c2.1,1,4.2,2.1,6.2,3.1c4.2,2.1,8.2,4.7,11.8,6.9s7.1,4.5,10,6.5
			c1,0.7,1.8,1.4,2.9,2c0-0.1,0-0.4,0-0.6c0-2.4-0.3-5-0.7-8c-0.4-3.1-1.4-6.2-2.6-9.4c-0.6-1.7-1.2-3.2-2-5c-0.7-1.7-1.7-3.3-2.7-5
			c-2-3.2-4.4-6.5-7-9.4C181.2,152.8,178,149.9,174.7,147.3z"/>
	</g>
</g>
</svg>
